<?xml version="1.0" standalone="no"?>
<!DOCTYPE svg PUBLIC "-//W3C//DTD SVG 1.1//EN" "http://www.w3.org/Graphics/SVG/1.1/DTD/svg11.dtd" >
<svg xmlns="http://www.w3.org/2000/svg" xmlns:xlink="http://www.w3.org/1999/xlink" version="1.1">
<metadata></metadata>
<defs>
<font id="thumbs_upregular" horiz-adv-x="1448" >
<font-face units-per-em="2048" ascent="1638" descent="-410" />
<missing-glyph horiz-adv-x="569" />
<glyph horiz-adv-x="0" />
<glyph unicode="&#xd;" horiz-adv-x="569" />
<glyph unicode=" "  horiz-adv-x="569" />
<glyph unicode="&#x09;" horiz-adv-x="569" />
<glyph unicode="&#xa0;" horiz-adv-x="569" />
<glyph unicode="!" horiz-adv-x="1184" d="M50 1100q0 260 276 380q70 20 128 20h280q264 0 380 -272q20 -69 20 -128q0 -90 -128 -524q20 -69 20 -128v-16q0 -249 -256 -396q-108 -40 -188 -40q-230 0 -376 216q-64 107 -64 224v8q0 56 20 132q-112 429 -112 524zM194 1092q0 -56 104 -468l24 -40 q-36 -71 -36 -144q0 -192 196 -280q39 -15 104 -20q164 0 264 164q32 62 32 132v8q0 64 -36 148q24 0 76 224q68 220 68 284q0 183 -200 252l-60 4h-272q-213 0 -264 -236v-28zM338 1100q0 98 120 112h272q116 -11 116 -116q0 -29 -108 -412h-300q-13 0 -40 144 q-60 227 -60 272zM430 444q0 100 112 144l44 8q152 -27 152 -152v-8q0 -112 -128 -148l-24 -4q-108 0 -152 120z" />
<glyph unicode="&#x22;" horiz-adv-x="1024" d="M50 1124v24q0 221 248 336q72 16 116 16q45 0 96 -12q51 12 96 12q264 0 360 -288l8 -136q0 -265 -184 -348q-69 -36 -144 -36q-65 4 -96 16q-38 -12 -100 -16q-182 0 -300 192q-100 109 -100 240zM194 1128q0 -98 88 -172q52 -120 176 -120q38 0 92 28q50 -28 96 -28 q130 0 180 148l4 84v12q0 188 -100 236q-50 40 -120 40h-8q-32 0 -96 -20q-43 20 -88 20h-8q-149 0 -212 -168l-4 -44v-16zM338 1124v16q11 72 72 72h8q72 -14 72 -72v-124q0 -30 -40 -36q-29 0 -36 40q0 16 24 40h-32q-68 14 -68 64zM530 1132v4q15 76 68 76h12 q67 0 76 -88v-84q0 -60 -44 -60q-28 0 -36 44q8 28 24 28v8h-36q-49 0 -64 72z" />
<glyph unicode="#" d="M50 500v188l8 60l-8 72v176q0 48 36 136v52q0 230 204 304q42 12 84 12h344l4 -4l4 4h344q203 0 280 -216l8 -60v-88q40 -90 40 -168v-128q0 -55 -12 -92q12 -28 12 -100v-116q0 -81 -40 -168v-80q0 -203 -216 -276q-28 -12 -108 -12h-216l-96 4l-96 -4h-220 q-224 0 -300 188q-20 44 -20 136v48q-36 83 -36 132zM194 512q0 -51 36 -92v-112q0 -168 168 -168h260q47 0 64 8q17 -8 64 -8h260q114 0 152 80q16 29 16 64v132q40 49 40 112v136q0 37 -20 88q20 39 20 84v136q0 65 -40 108v136q0 104 -120 140h-324l-48 -4l-48 4h-300 q-128 0 -144 -156v-120q-36 -47 -36 -92v-168q0 -32 20 -72q-20 -37 -20 -60v-176zM338 524v140l8 8h28v156h-28l-8 8v136l8 8h28v224l8 8h296l8 -8v-216l44 -8q32 7 32 16v208l8 8h292l8 -8v-224h32l8 -8v-136q0 -8 -40 -12v-152h32l8 -8v-140l-8 -8h-32v-224l-8 -8h-292 l-8 8v216l-28 8h-16q-29 0 -32 -12v-212l-8 -8h-296l-8 8v224h-28zM686 680l36 -8h4l36 8v132q0 9 -36 16q-40 -6 -40 -16v-132z" />
<glyph unicode="$" horiz-adv-x="1452" d="M50 520v16q0 107 20 164q-20 64 -20 196v92q0 283 152 400q73 68 188 104q82 164 284 164h104q202 0 288 -168q152 -45 232 -148q104 -115 104 -328v-72q0 -84 -20 -140q20 -70 20 -176v-136q0 -347 -292 -464q-45 0 -68 -56q-99 -124 -224 -124h-184q-149 0 -252 168 q-177 55 -256 184q-76 93 -76 324zM194 492q0 -258 196 -332l116 -24q0 -114 116 -148h196q87 0 128 116q0 36 12 36q179 0 272 180q28 50 28 156v160q0 93 -32 176q32 44 32 116v92q0 237 -196 320q-60 16 -104 16h-4l-20 76q-51 80 -140 80h-124q-120 0 -156 -96 q-10 -60 -16 -60h-4q-210 0 -288 -224q-12 -32 -12 -132v-116q0 -133 36 -200q-36 -27 -36 -124v-68zM338 472v116l8 8h296l8 -8v-76q0 -59 76 -72q76 13 76 72v88q0 59 -76 72h-228q-111 0 -152 112l-8 76v164q0 135 100 180l52 8h160v148l8 8h136l8 -8v-148h160 q152 -23 152 -164v-136l-8 -8h-296l-8 8v80q0 50 -68 64h-20q-64 -18 -64 -64v-92q13 -72 64 -72h212q188 0 188 -180v-184q0 -180 -180 -180h-132v-144l-8 -8h-136l-8 8v144h-132q-180 0 -180 188z" />
<glyph unicode="%" horiz-adv-x="1600" d="M50 1048v20q0 210 188 352q117 80 248 80h12q75 0 148 -28q55 28 124 28h308q174 0 260 -164q28 -50 28 -120v-16q0 -46 -88 -352q165 -70 236 -232q36 -82 36 -156v-40q0 -221 -228 -368q-108 -56 -216 -56q-85 7 -156 28q-53 -28 -156 -28h-236q-229 0 -308 188 q-16 57 -16 100v4q0 49 84 356v8h-4q-264 139 -264 396zM194 1052q0 -203 224 -284l80 -12q-108 -396 -120 -468v-4q0 -101 112 -140l56 -4h260q90 0 136 52q85 -52 168 -52q181 0 276 188q20 56 20 96v32q0 170 -192 264l-112 24q108 390 120 464v8q-21 140 -140 140h-316 q-54 0 -108 -48h-4q-73 48 -160 48h-4q-202 0 -284 -212q-12 -29 -12 -80v-12zM338 1052v12q0 104 124 148h32q110 0 152 -128v-28q-24 -152 -152 -152q-110 0 -152 112zM522 292l248 916l4 4h296l8 -8l-248 -916l-4 -4h-296zM954 444q0 124 156 152q110 0 152 -128v-36 q0 -106 -124 -144l-28 -4q-107 0 -152 120z" />
<glyph unicode="&#x26;" horiz-adv-x="1548" d="M50 424v192q0 48 24 136q-24 73 -24 136v192q0 204 204 352q111 68 232 68h476q259 0 400 -268q36 -85 36 -212v-56q100 -83 100 -212v-160l-8 -80l8 -60v-168q0 -203 -216 -276q-28 -12 -108 -12h-68l-100 4l-124 -4h-344q-368 0 -476 328zM194 420q0 -121 120 -220 q73 -60 212 -60h356l124 4l100 -4h80q114 0 152 80q16 29 16 64v160q0 32 -20 76q20 35 20 72v160q0 87 -100 140v132q0 228 -184 308q-49 24 -116 24h-464q-206 0 -288 -220l-8 -60v-192q0 -58 40 -136q-40 -74 -40 -132v-196zM338 420v184q0 111 136 144v4q-93 0 -136 120 v196q0 100 124 144h496q119 0 148 -136l4 -40v-112q0 -137 -124 -172h-16v-4l12 -4l68 4h152l8 -8v-68l-4 -4v-4l-4 4h-96q-59 0 -72 -76v-72q13 -76 72 -76h4l36 8q16 -11 64 -16v-144l-8 -8h-156l-48 8l-68 -8h-416q-126 0 -168 100zM646 512q0 -59 76 -72q58 0 76 64v96 q0 59 -76 72q-76 -13 -76 -72v-88zM646 900q14 -72 64 -72h24q64 18 64 64v100q0 50 -68 64h-20q-51 0 -64 -72v-84z" />
<glyph unicode="'" horiz-adv-x="828" d="M50 1124v24q0 222 248 336q72 16 116 16q230 0 340 -232q24 -60 24 -128v-128q0 -207 -224 -304q-69 -16 -104 -16q-182 0 -300 192q-100 109 -100 240zM194 1128q0 -98 88 -172q52 -120 176 -120q125 0 172 144l4 36v132q0 140 -172 204l-44 4h-8q-166 0 -216 -192v-36z M338 1124v16q11 72 72 72h8q72 -14 72 -72v-124q0 -30 -40 -36q-29 0 -36 40q0 16 24 40h-32q-68 14 -68 64z" />
<glyph unicode="(" horiz-adv-x="1232" d="M50 752q0 458 348 744q222 160 500 160q175 0 264 -184q20 -45 20 -104v-156q0 -178 -180 -268q-24 -83 -24 -176v-40q8 -184 40 -184q164 -85 164 -256v-168q0 -165 -180 -256q-45 -20 -104 -20h-16q-394 0 -648 324q-184 258 -184 584zM194 744q0 -401 312 -644 q178 -112 372 -112h20q140 21 140 140v160q0 101 -108 136q-79 0 -96 308v36q0 203 72 300q76 0 124 96q8 16 8 44v160q0 124 -148 144q-412 0 -616 -396q-80 -172 -80 -372zM338 756q0 346 272 536q134 76 280 76l4 -4v-144q0 -7 -56 -20q-148 -115 -148 -432v-36 q10 -364 164 -440q40 -5 40 -16v-136l-8 -8h-4q-359 0 -508 384q-36 117 -36 240z" />
<glyph unicode=")" horiz-adv-x="1232" d="M50 140v136q0 193 180 276q24 82 24 172v52q0 180 -48 180q-156 91 -156 260v148q0 216 236 288l52 4q470 0 724 -424q120 -222 120 -488q0 -455 -344 -740q-221 -160 -488 -160h-16q-202 0 -280 228zM194 132q0 -115 128 -144h32q395 0 604 388q80 182 80 368v4 q0 455 -368 684q-161 80 -332 80q-127 0 -144 -152v-148q0 -102 112 -140q75 0 92 -300v-56q-21 -288 -84 -288q-120 -32 -120 -148v-148zM338 140v136q0 10 52 20q71 37 112 164q40 118 40 264v56q0 285 -132 408q-23 18 -72 28v144l8 8q354 0 508 -372q40 -121 40 -248v-8 q0 -343 -272 -536q-131 -72 -272 -72h-4z" />
<glyph unicode="*" horiz-adv-x="1128" d="M50 1168q0 207 204 324l68 72q116 92 240 92q179 0 312 -164q204 -115 204 -316v-16q0 -61 -28 -148q0 -215 -204 -328q-75 -36 -148 -36h-24q-50 0 -112 20q-48 -20 -108 -20h-32q-167 0 -292 176q-56 103 -56 216q-24 50 -24 128zM194 1156q0 -49 32 -104l-4 -28 q0 -173 172 -228l40 -4h24q36 0 112 32q53 -32 100 -32h24q151 0 208 172l4 40v44q28 68 28 108v16q0 148 -172 212q-64 128 -200 128q-125 0 -204 -136q-68 0 -144 -116q-20 -51 -20 -104zM338 1164v4q0 76 112 76h36v32q0 63 52 88l32 4q56 0 72 -76v-48h48q74 0 96 -48 l4 -20v-16q-15 -68 -56 -68l28 -76v-8q-15 -72 -64 -72h-24q-44 0 -104 120l-4 4h-4q-61 -124 -112 -124h-12q-59 0 -72 76q0 21 32 80h-4q-41 0 -56 72z" />
<glyph unicode="+" d="M50 688v124q0 198 180 280q34 16 52 16v12q0 208 196 288q50 16 108 16h280q220 0 292 -216l8 -56v-36q5 -8 84 -36q148 -98 148 -236v-188q0 -173 -200 -260q-32 -2 -32 -12v-40q0 -166 -196 -256l-76 -12h-340q-149 0 -244 164q-28 60 -28 136v8q0 8 -20 8 q-212 79 -212 296zM194 692q0 -110 80 -148q29 -16 64 -16h80l8 -8v-148q0 -105 96 -144q16 -8 44 -8h320q97 0 136 112v188l8 8h84q140 22 140 136v180q0 79 -104 120q-20 8 -72 8h-48l-8 8v172q-25 128 -152 128h-288q-156 -15 -156 -148v-152l-8 -8h-52q-124 0 -160 -92 q-12 -26 -12 -64v-124zM338 680v140l8 8h224v300l8 8h292l8 -8v-300h224l8 -8v-140l-8 -8h-224v-300l-8 -8h-292l-8 8v300h-224z" />
<glyph unicode="," horiz-adv-x="984" d="M50 444q0 238 224 380q107 60 220 60q237 0 384 -228q56 -102 56 -208v-240q0 -254 -276 -356l-80 -8h-12q-219 0 -332 220q0 19 -80 88q-104 131 -104 292zM194 440q0 -161 156 -268q55 -184 212 -184h12q152 0 212 172l4 44v240q0 198 -216 284l-80 12 q-191 0 -284 -200q-16 -55 -16 -100zM338 436v8q26 152 156 152q152 -28 152 -152v-240q-14 -72 -72 -72h-8q-72 13 -72 64v24q0 41 52 60v4h-24q-133 0 -176 100z" />
<glyph unicode="-" d="M50 700v96q0 227 192 300q39 20 148 20h672q229 0 300 -152q36 -55 36 -120v-192q0 -157 -184 -252q-63 -16 -104 -16h-764q-203 0 -280 200q-16 37 -16 116zM194 684q16 -156 144 -156h776q140 21 140 136v180q0 92 -132 128h-756q-172 0 -172 -168v-120zM338 680v140 l8 8h756l8 -8v-140l-8 -8h-756z" />
<glyph unicode="." horiz-adv-x="988" d="M50 444q0 234 224 380q112 60 220 60q263 0 408 -268q36 -109 36 -176q0 -236 -224 -384q-112 -60 -224 -60q-200 0 -348 176q-92 126 -92 272zM194 440q0 -200 216 -288l84 -12q187 0 280 196q16 52 20 104q0 187 -196 280q-48 16 -104 20q-189 0 -280 -196 q-20 -60 -20 -104zM338 440q26 152 144 152l12 4q152 -26 152 -148l4 -4v-4q-27 -152 -144 -152l-12 -4q-109 0 -152 124z" />
<glyph unicode="/" horiz-adv-x="1236" d="M50 288q0 47 272 1040q93 172 264 172h312q197 0 276 -208q12 -46 12 -80q0 -45 -132 -532q-128 -484 -156 -544q-91 -140 -280 -140h-248q-226 0 -304 196zM194 288q0 -129 156 -148h276q141 0 168 132q232 855 248 944q0 90 -100 132q-16 8 -44 8h-312 q-132 0 -160 -200q-204 -740 -232 -868zM342 292l248 920h304v-4q-240 -914 -248 -924h-296z" />
<glyph unicode="0" d="M50 452v588q0 279 244 412q93 48 192 48h476q241 0 384 -232q52 -99 52 -192v-648q0 -218 -208 -364q-99 -68 -280 -68h-372q-335 0 -456 280q-32 79 -32 176zM194 452q0 -215 208 -296q43 -16 128 -16h396q247 0 320 224l8 60v640q0 169 -164 260q-60 32 -132 32h-468 q-195 0 -280 -204q-16 -44 -16 -104v-596zM338 424v652q0 89 124 136l76 4h376q158 0 192 -112l8 -76v-564q0 -139 -120 -176l-36 -4h-460q-129 0 -160 140zM650 516q11 -72 68 -72h20q64 11 64 92v420q0 100 -76 100h-4q-72 -11 -72 -72v-468z" />
<glyph unicode="1" horiz-adv-x="1140" d="M50 1076v128q0 206 204 284q42 12 84 12h316q237 0 380 -228q56 -98 56 -224v-752q0 -203 -196 -284q-55 -16 -124 -16h-240q-234 0 -312 196l-12 76v480q-156 141 -156 328zM194 1080q0 -163 156 -256v-544q0 -98 112 -136l56 -4h260q137 0 164 116l4 36v756 q0 211 -204 292q-37 16 -92 16h-316q-140 -22 -140 -144v-132zM338 1084v120l8 8h304q108 0 148 -120l4 -40v-760l-8 -8h-292l-8 8v644l-8 8h-28q-77 0 -116 100z" />
<glyph unicode="2" d="M50 432v248q0 89 48 200q-48 96 -48 192v152q0 176 200 264q50 12 88 12h624q259 0 400 -264q36 -87 36 -184v-220q0 -86 -20 -132q20 -48 20 -108v-300q0 -206 -208 -284q-50 -12 -116 -12h-536q-352 0 -468 308q-20 70 -20 128zM194 428q0 -154 160 -252 q61 -36 168 -36h564q114 0 152 80q16 29 16 64v312q0 39 -32 96q32 60 32 140v220q0 214 -216 292q-29 12 -80 12h-624q-103 0 -140 -120v-160q0 -107 80 -196v-4q-80 -89 -80 -204v-244zM338 436v240q25 148 144 148l36 4h212q65 0 72 88v52q-11 88 -64 88h-28 q-47 0 -64 -76v-28l-8 -8h-172q-108 0 -128 132v128l8 8h612q152 -24 152 -152v-236q-24 -152 -152 -152h-236q-66 0 -76 -84v-60q0 -88 76 -88h4q66 0 76 84v64l8 8h292l8 -8v-296l-8 -8h-580q-133 0 -176 100z" />
<glyph unicode="3" d="M50 448v144q0 122 84 204q-84 123 -84 268v148q0 194 204 276q42 12 84 12h624q277 0 412 -292q24 -77 24 -140v-172q0 -75 -28 -148q28 -68 28 -144v-172q0 -239 -236 -384q-94 -52 -252 -52h-372q-336 0 -460 284q-28 86 -28 168zM194 440q0 -206 220 -288 q45 -12 116 -12h396q238 0 316 212q12 42 12 84v160q0 70 -40 156q40 71 40 148v160q0 204 -216 284q-29 12 -80 12h-624q-140 -22 -140 -144v-152q0 -209 216 -288q29 -12 80 -12h4l8 -8v-4l-8 -8h-132q-113 0 -152 -80q-16 -29 -16 -64v-156zM338 444v144l8 8h292l8 -8 v-68q12 -80 76 -80h4q76 12 76 76v68q0 88 -76 88h-72l-8 8v140l8 8h76q59 0 72 76v76q0 58 -64 76h-20q-65 0 -72 -88v-56l-8 -8h-148q-152 24 -152 152v148l8 8h608q110 0 152 -112l4 -36v-164q0 -113 -128 -148h-8v-4q88 0 136 -124v-188q0 -119 -144 -152h-444 q-126 0 -168 88q-16 28 -16 72z" />
<glyph unicode="4" d="M50 844v356q0 221 220 292l68 8h312l76 -8l76 8h320q174 0 264 -196l12 -76v-948q0 -173 -176 -260q-50 -24 -148 -24h-236q-223 0 -300 176q-24 53 -24 116v96h-16q-289 0 -420 288q-28 78 -28 172zM194 836q0 -224 228 -300l72 -8h156l8 -8v-228q0 -111 112 -148l56 -4 h260q120 0 160 92l8 48v948q0 83 -108 124l-32 4h-316q-29 0 -76 -20q-35 20 -72 20h-316q-122 0 -140 -152v-368zM338 832v372l8 8h292l8 -8v-284q7 -92 72 -92h84v376l8 8h292l8 -8v-912l-8 -8h-292l-8 8v304q-12 76 -76 76h-236q-111 0 -148 124z" />
<glyph unicode="5" d="M50 424q0 97 52 196q-52 92 -52 240v164q0 348 324 460q57 16 112 16h628q198 0 276 -212l8 -56v-348q0 -27 -16 -88q16 -58 16 -104v-272q0 -168 -144 -308q-119 -116 -344 -116h-388q-218 0 -332 112q-140 135 -140 316zM194 420q0 -169 172 -256q51 -24 140 -24h416 q254 0 324 224l8 56v272q0 57 -32 116q32 47 32 88v324q0 115 -140 136h-624q-205 0 -288 -228l-8 -96v-180q0 -147 84 -232q-84 -91 -84 -200zM338 424q27 128 116 128l28 4h160l8 -8v-44q13 -64 84 -64q68 21 68 68v96q0 53 -76 68h-236q-117 0 -152 140v236 q0 137 144 164h620l8 -8v-292l-8 -8h-224q-80 0 -80 108q-29 44 -60 44h-20q-68 -12 -68 -68v-92q14 -68 64 -68h212q131 0 176 -96l8 -52v-248q0 -106 -124 -144l-52 -4h-436q-108 0 -144 76q-16 31 -16 64z" />
<glyph unicode="6" horiz-adv-x="1452" d="M50 480v532q0 356 316 472q73 16 132 16h456q279 0 412 -272q36 -70 36 -236v-48q0 -87 -20 -144q20 -66 20 -188v-112q0 -280 -164 -400q-112 -104 -320 -104h-384q-340 0 -456 296q-28 67 -28 188zM194 476q0 -253 220 -324q45 -12 116 -12h392q237 0 316 196 q20 57 20 144v152q0 97 -32 180q32 42 32 124v72q0 239 -168 316q-55 32 -132 32h-464q-200 0 -284 -208q-16 -43 -16 -128v-544zM338 464v564q0 133 100 176l52 8h472q100 0 144 -112l8 -68v-120l-8 -8h-296l-8 8v80q-18 64 -64 64h-20q-68 -14 -68 -64v-100q18 -64 64 -64 h212q188 0 188 -188v-168q0 -188 -180 -188h-416q-180 0 -180 180zM650 512q0 -59 76 -72q76 13 76 72v88q0 59 -76 72h-76v-160z" />
<glyph unicode="7" d="M50 1056v176q0 150 168 244q57 24 116 24h628q234 0 380 -228q56 -96 56 -248v-164q0 -325 -288 -448l-24 -8v-136q0 -165 -192 -256q-56 -16 -132 -16h-240q-221 0 -300 184q-20 58 -20 112v360q0 60 8 96q-160 133 -160 308zM194 1060q0 -149 168 -240l16 -4v-4 q-32 -80 -32 -152v-372q0 -108 116 -144l52 -4h260q125 0 160 96l8 32v252l8 8h4q213 0 292 232l8 92v180q0 244 -228 316l-60 8h-632q-140 -21 -140 -136v-160zM338 1052v152l8 8h612q112 0 148 -128l4 -48v-188q0 -122 -100 -168l-52 -8h-80q-80 0 -80 -100v-280l-8 -8 h-292l-8 8v372q0 148 168 164h76q64 18 64 64v96q-12 68 -68 68h-20q-50 0 -64 -72v-32l-8 -8h-184q-79 0 -116 108z" />
<glyph unicode="8" d="M50 428v180q0 77 28 140q-28 70 -28 136v192q0 226 232 372q102 52 204 52h476q216 0 360 -196q76 -109 76 -264v-116q0 -93 -28 -180q28 -64 28 -168v-116q0 -337 -332 -448q-55 -16 -156 -16h-372q-340 0 -460 284q-28 79 -28 148zM194 424q0 -152 160 -248 q61 -36 168 -36h396q225 0 308 176q28 59 28 136v132q0 97 -44 164q44 74 44 168v128q0 250 -264 312h-500q-205 0 -288 -220l-8 -60v-180q0 -70 40 -148q-40 -75 -40 -136v-188zM338 432v180q0 86 116 132l20 4v4q-94 0 -136 124v200q0 88 124 136h496q111 0 148 -124 l4 -48v-128q0 -117 -112 -156l-24 -4v-4q57 0 112 -72q24 -39 24 -88v-140q0 -115 -112 -156l-68 -8h-416q-120 0 -164 92q-12 31 -12 56zM646 516q12 -76 76 -76h4q64 0 76 84v48q0 100 -80 100q-76 -12 -76 -76v-80zM646 900q15 -72 64 -72h20q72 0 72 100v28 q0 100 -72 100h-20q-49 0 -64 -72v-84z" />
<glyph unicode="9" d="M50 432v176q0 49 20 88q-20 52 -20 120v252q0 208 188 352q117 80 248 80h476q233 0 376 -220q60 -106 60 -220v-612q0 -288 -280 -420q-78 -32 -208 -32h-372q-343 0 -460 288q-28 73 -28 148zM194 436q0 -203 220 -284q47 -12 108 -12h396q244 0 320 204q16 47 16 104 v608q0 208 -216 288q-29 12 -80 12h-468q-207 0 -288 -224l-8 -60v-248q0 -61 32 -140q-32 -35 -32 -84v-164zM338 436v152l8 8h292l8 -8v-72q12 -76 76 -76h4q68 0 76 88v52q0 92 -88 92h-224q-109 0 -152 124v268q0 102 116 144l40 4h464q110 0 152 -128v-640 q0 -113 -120 -156l-64 -4h-412q-123 0 -168 100zM646 904q13 -76 72 -76h84v140q-7 88 -72 88h-20q-64 -17 -64 -76v-76z" />
<glyph unicode=":" horiz-adv-x="984" d="M50 428v24q0 161 124 296q-124 138 -124 300v20q0 210 188 352q117 80 248 80h12q255 0 396 -256q40 -94 40 -188q0 -165 -124 -308q124 -135 124 -312q0 -237 -224 -380q-108 -60 -220 -60q-268 0 -412 280q-28 88 -28 152zM194 424q0 -146 152 -244q76 -40 144 -40 q177 0 272 176q28 58 28 128q0 168 -168 264q-69 32 -132 32q-180 0 -276 -188q-20 -59 -20 -96v-32zM194 1052q0 -169 164 -260q60 -32 132 -32h4q196 0 280 204q16 41 16 96q0 203 -216 284q-29 12 -80 12h-4q-202 0 -284 -212q-12 -29 -12 -80v-12zM338 432v16 q0 120 152 148q108 0 152 -120l4 -40q0 -100 -112 -144l-44 -8q-152 28 -152 148zM338 1052v12q0 104 124 148h32q110 0 152 -128v-28q-24 -152 -152 -152q-110 0 -152 112z" />
<glyph unicode=";" horiz-adv-x="984" d="M50 444q0 169 124 304q-124 141 -124 304v12q0 251 248 392q96 44 188 44h12q272 0 408 -284q28 -81 28 -152v-12q0 -164 -124 -304q124 -136 124 -300v-240q0 -226 -224 -336q-66 -28 -132 -28h-12q-219 0 -332 220q0 19 -80 88q-104 131 -104 292zM194 440 q0 -161 156 -268q55 -184 212 -184h12q152 0 212 172l4 44v240q0 198 -216 284l-80 12q-191 0 -284 -200q-16 -55 -16 -100zM194 1056q0 -204 216 -284q29 -12 80 -12h4q204 0 284 216q12 29 12 80v4q0 204 -216 284q-29 12 -80 12h-4q-204 0 -284 -216q-12 -29 -12 -80v-4z M338 436v8q0 126 156 152q152 -28 152 -152v-240q-14 -72 -72 -72h-8q-72 13 -72 64v24q0 41 52 60v4h-24q-131 0 -176 100zM338 1056v4q24 152 152 152q116 0 156 -124v-36q0 -101 -116 -144l-40 -4q-152 24 -152 152z" />
<glyph unicode="&#x3c;" horiz-adv-x="1232" d="M50 736v20q0 87 120 288q141 304 316 384q124 72 248 72h164q198 0 276 -212l8 -56v-40q0 -81 -136 -304l-72 -144q208 -362 208 -420v-56q0 -165 -192 -256q-56 -16 -132 -16h-72q-412 0 -596 424q-140 233 -140 316zM194 748q0 -52 112 -240q66 -155 164 -252 q125 -116 308 -116h92q125 0 160 96l8 32v36q0 31 -156 312q-50 86 -68 136q189 352 224 432v36q0 115 -140 136h-160q-202 0 -360 -224l-176 -340q-8 -16 -8 -44zM338 748q175 341 220 380q95 84 184 84h144l4 -4h4q-244 -448 -244 -464l244 -456l-4 -4h-120 q-210 0 -312 244z" />
<glyph unicode="=" horiz-adv-x="1452" d="M50 556v84q0 61 12 108q-12 45 -12 116v80q0 229 188 308q57 16 100 16h776q209 0 280 -228l8 -112v-52q0 -82 -12 -128q12 -45 12 -128v-52q0 -231 -156 -304q-53 -36 -164 -36h-712q-215 0 -296 176q-24 56 -24 152zM194 548q0 -176 168 -176h728q168 0 168 172v96 q0 75 -24 108q24 37 24 112v88q0 130 -92 168l-40 8h-800q-85 0 -128 -112l-4 -56v-104q0 -61 24 -108q-20 -8 -24 -96v-100zM338 524v140l8 8h760l8 -8v-140l-8 -8h-760zM338 836v136l8 8h760l8 -8v-136l-8 -8h-760z" />
<glyph unicode="&#x3e;" horiz-adv-x="1236" d="M50 1212q0 178 184 268q45 20 104 20h164q245 0 444 -244q56 -80 228 -420l12 -92q0 -93 -144 -332q-184 -416 -592 -416h-72q-257 0 -320 228l-4 40v40q0 76 108 260l100 184q-183 331 -204 400zM194 288q0 -126 152 -148h112q314 0 456 340q128 216 128 264v8 q0 49 -156 320q-67 158 -220 240q-91 44 -168 44h-160q-100 0 -140 -112l-4 -32q0 -45 120 -256l108 -200v-4l-220 -424zM342 288l244 464l-244 456l4 4h148q127 0 232 -144q168 -307 168 -320q-151 -306 -212 -376q-95 -88 -216 -88h-116l-4 4h-4z" />
<glyph unicode="?" d="M50 1064v20q0 229 220 364q95 52 196 52h496q239 0 380 -228q56 -98 56 -224v-212q0 -306 -312 -436q0 -155 -168 -312q-137 -92 -272 -92q-238 0 -384 224q-60 114 -60 220q4 61 20 132q-20 47 -20 140v36q-152 147 -152 316zM194 1064q0 -147 164 -244v-4 q-12 -41 -12 -112q0 -85 32 -120q-32 -105 -32 -144q0 -184 192 -280q55 -16 108 -20q189 0 280 196q20 60 20 104l-12 84l4 4h16q207 0 288 216q12 40 12 92v220q0 208 -216 288q-29 12 -80 12h-496q-167 0 -252 -184q-16 -41 -16 -92v-16zM338 1064v16q20 132 132 132h488 q109 0 148 -120l4 -40v-220q0 -123 -132 -160h-480l-8 8v48q0 100 100 100h140q65 0 72 88v52q-7 88 -72 88h-20q-64 -17 -64 -76v-28l-8 -8h-172q-86 0 -124 96zM490 436v4q27 152 144 152l12 4q109 0 152 -124l4 -36q-30 -148 -144 -148l-12 -4q-152 25 -152 148z" />
<glyph unicode="@" horiz-adv-x="2220" d="M50 188v872q0 254 272 396q90 32 188 32h1204q321 0 440 -324q16 -64 16 -136v-576q0 -75 -20 -144q16 -40 16 -80v-192q0 -138 -144 -232q-56 -40 -192 -40h-1272q-267 0 -384 136q-124 135 -124 288zM194 188q0 -153 168 -248q52 -32 180 -32h1312q120 0 160 92l8 36 v180q0 44 -28 80v4q32 81 32 144v592q0 190 -176 280q-58 28 -128 28h-1220q-220 0 -300 -220l-8 -60v-876zM338 200v864q0 74 96 124q26 12 64 12h1228q122 0 156 -140v-612q0 -116 -112 -156l-68 -8h-800q-140 0 -176 120l-4 44v100q0 115 112 156l68 8h284v40 q-15 76 -76 76q-80 -19 -80 -72h-300l-8 8v64q0 112 116 152h508q104 0 148 -124v-328q0 -72 44 -72q36 0 36 80v416q-8 92 -68 92h-788q-59 0 -72 -72v-696q0 -53 76 -68h1148l8 -8v-140l-8 -8h-1348q-131 0 -176 96zM1030 540q0 -87 68 -100h12q76 12 76 76v116h-156v-92z " />
<glyph unicode="A" d="M50 280q82 916 104 916q60 147 220 244q121 60 240 60h232q245 0 416 -236q68 -119 68 -296q68 -624 68 -692q0 -166 -176 -256q-53 -24 -148 -24h-236q-71 0 -112 12q-45 -12 -116 -12h-236q-247 0 -316 216zM194 272q0 -88 116 -128l52 -4h260q49 0 104 20 q46 -20 100 -20h260q118 0 156 88q12 26 12 48q-79 868 -92 868q-115 212 -320 212h-228q-186 0 -300 -164q-48 -70 -48 -200q-6 -2 -72 -720zM338 292q75 812 88 812q62 112 228 112h140q206 0 244 -164l76 -764l-4 -4h-304q-12 0 -32 276q-5 0 -12 108h-76 q-32 -360 -40 -384h-300zM702 828h44l-20 208h-4z" />
<glyph unicode="B" d="M50 300v888q0 215 184 292q45 20 104 20h624q274 0 412 -288q24 -82 24 -140v-188q0 -46 -24 -140q24 -69 24 -136v-188q0 -166 -144 -308q-120 -116 -344 -116h-540q-239 0 -312 216zM194 296q0 -119 116 -152l52 -4h564q250 0 324 232l4 60v180q0 55 -40 140 q40 67 40 144v180q0 157 -176 256q-61 24 -120 24h-620q-127 0 -144 -152v-908zM338 292v916l8 8h568q200 0 200 -180v-112q0 -133 -116 -172h-12v-4q45 -6 92 -56q36 -41 36 -120v-112q0 -134 -120 -172l-36 -4h-612zM650 516q11 -72 68 -72h20q64 11 64 92v36q0 96 -72 96 h-80v-152zM650 828h76q76 0 76 100v28q0 100 -76 100q-64 0 -76 -72v-156z" />
<glyph unicode="C" horiz-adv-x="1452" d="M50 488v512q0 304 200 424q101 76 248 76h456q283 0 416 -280q32 -73 32 -220v-56q0 -82 -24 -164q24 -45 24 -148v-132q0 -280 -164 -400q-112 -104 -320 -104h-384q-367 0 -472 344q-12 70 -12 148zM194 476q0 -252 220 -324q45 -12 116 -12h392q241 0 320 204 q16 58 16 144v152q0 101 -56 148q56 45 56 148v84q0 236 -196 320q-63 16 -104 16h-464q-200 0 -284 -208q-16 -43 -16 -128v-544zM338 440v612q0 109 104 152q21 12 96 12h376q153 0 192 -104l8 -60v-144l-8 -8h-296l-8 8v60q0 88 -76 88t-76 -88v-440q0 -61 52 -84h36 q51 0 64 76v144l8 8h296l8 -8v-224q-24 -156 -156 -156h-464q-103 0 -148 108z" />
<glyph unicode="D" d="M50 268v960q0 164 180 252q45 20 104 20h628q228 0 372 -216q64 -100 64 -248v-564q0 -345 -324 -460q-73 -16 -164 -16h-536q-226 0 -304 180q-20 49 -20 92zM194 268q0 -92 132 -128h592q238 0 320 200q16 60 16 124v580q0 231 -236 308l-60 4h-624q-140 -21 -140 -136 v-952zM334 292v916l8 8h568q154 0 192 -104l8 -40v-648q-31 -140 -160 -140h-608zM646 440h40q112 0 112 76v456q0 84 -84 84h-68v-616z" />
<glyph unicode="E" d="M50 284v932q0 196 208 272q29 12 80 12h772q207 0 284 -228l4 -68v-280q-20 -156 -40 -156l-8 -12q48 -78 48 -164v-144q0 -288 -280 -420q-78 -32 -208 -32h-536q-229 0 -308 188q-16 57 -16 100zM194 280q0 -97 112 -136l56 -4h556q247 0 320 208q16 36 16 100v140 q0 111 -112 148l-56 4h-132l-8 8v4l8 8h136q137 0 160 128l4 36v288q0 122 -140 144h-780q-140 -21 -140 -140v-936zM334 292v916l8 8h760l8 -8v-300l-8 -8h-296l-8 8v76q-11 72 -72 72h-4q-72 -13 -72 -64v-164h144l8 -8v-144l-8 -8h-144v-156q11 -68 68 -68h12 q68 11 68 68v76l8 8h296l8 -8v-156q0 -107 -132 -148h-636z" />
<glyph unicode="F" d="M50 288v916q0 206 204 284q42 12 84 12h772q203 0 280 -216l8 -68v-296q-19 -160 -48 -160q-22 -65 -140 -124l-128 -24q0 -74 -112 -176q-27 -11 -36 -24v-132q0 -181 -188 -264q-42 -20 -136 -20h-236q-223 0 -300 176q-24 53 -24 116zM194 284q0 -100 112 -140l56 -4 h260q120 0 160 92l8 48v240q0 6 76 20q80 54 80 132v80l8 8h140q129 0 156 124l4 36v296q0 104 -120 140h-800q-140 -22 -140 -144v-928zM338 292v916l8 8h760l8 -8v-300l-8 -8h-300l-8 8v84q0 51 -72 64h-4q-72 -11 -72 -72v-156h144l8 -8v-144l-8 -8h-144v-376l-8 -8h-296 z" />
<glyph unicode="G" d="M50 432v640q0 191 172 336q122 92 264 92h476q234 0 376 -220q60 -106 60 -220v-172l-4 -20l4 -24v-396q0 -288 -280 -420q-78 -32 -208 -32h-372q-343 0 -460 288q-28 73 -28 148zM194 436q0 -199 216 -284q55 -12 112 -12h396q247 0 324 212q12 51 12 96v352l-4 68 l4 60v128q0 209 -216 288q-29 12 -80 12h-468q-204 0 -284 -216q-12 -29 -12 -80v-624zM334 472v544q0 111 44 148q42 52 148 52h396q148 0 184 -116l4 -24v-168l-8 -8h-296l-8 8v76q-11 72 -72 72h-4q-72 -13 -72 -64v-480q11 -68 68 -68h12q68 11 68 68v92q0 51 -76 68 v148l8 8h372l8 -8v-388q0 -107 -132 -148h-488q-108 0 -152 124z" />
<glyph unicode="H" d="M50 288v916q0 206 204 284q42 12 84 12h320l68 -8l76 8h308q203 0 280 -216l8 -68v-944q0 -168 -192 -260q-56 -16 -132 -16h-236q-71 0 -112 12q-45 -12 -116 -12h-236q-223 0 -300 176q-24 53 -24 116zM194 292q0 -111 112 -148l56 -4h260q49 0 104 20q46 -20 100 -20 h260q119 0 160 92l8 48v936q0 104 -120 140h-336q-32 0 -76 -20q-35 20 -72 20h-316q-118 0 -140 -144v-920zM338 292v916l8 8h296l8 -8v-308q0 -63 76 -72h8q64 18 64 64v316l8 8h300l8 -8v-916l-8 -8h-300l-8 8v308q-11 68 -68 68h-12q-68 -14 -68 -64v-312l-8 -8h-296z " />
<glyph unicode="I" horiz-adv-x="984" d="M50 300v888q0 215 184 292q45 20 104 20h312q198 0 276 -212l8 -56v-972q0 -138 -168 -240q-69 -24 -156 -24h-240q-239 0 -312 216zM194 296q0 -122 120 -152l48 -4h260q127 0 160 96l8 32v964q0 79 -108 120l-32 4h-312q-99 0 -140 -108l-4 -56v-896zM338 292v916l8 8 h296l8 -8v-916l-8 -8h-296z" />
<glyph unicode="J" d="M50 424v188q0 165 192 256q56 16 132 16h116v4q-56 76 -56 180v140q0 203 208 280q29 12 80 12h388q189 0 272 -196q16 -48 16 -120v-708q0 -349 -324 -464q-76 -16 -164 -16h-372q-368 0 -476 328zM194 420q0 -136 144 -236q65 -44 188 -44h392q273 0 332 252l4 76v732 q-16 156 -144 156h-392q-122 0 -140 -152v-144q0 -79 76 -132v-180l-8 -8h-284q-125 0 -160 -96l-8 -32v-192zM334 448v140l8 8h296l8 -8v-56q0 -73 60 -88h28q51 0 64 72v464q0 61 -76 80v148l8 8h372l8 -8v-772q0 -104 -120 -148l-40 -4h-460q-136 0 -156 164z" />
<glyph unicode="K" d="M50 272v956q0 153 164 244q55 28 112 28h320l76 -8l76 8h312q191 0 272 -196q16 -41 16 -96v-288q0 -94 -28 -172q28 -75 28 -164v-288q0 -214 -212 -288q-47 -12 -108 -12h-240q-71 0 -116 12q-41 -12 -112 -12h-236q-230 0 -304 184q-20 47 -20 92zM194 280 q0 -97 112 -136l56 -4h260q69 0 100 24q37 -24 104 -24h260q137 0 164 116l4 36v292q0 78 -40 168q40 81 40 156v296q-18 152 -140 152h-316q-32 0 -76 -20q-38 20 -72 20h-316q-105 0 -140 -120v-956zM334 292v916l8 8h296l8 -8v-380h68q73 0 84 68v312l8 8h296l8 -8v-320 q0 -77 -96 -128l-28 -8v-4q124 -46 124 -136v-320l-8 -8h-296l-8 8v304q-11 72 -68 72h-84v-376l-8 -8h-296z" />
<glyph unicode="L" d="M50 436v776q0 199 208 276q29 12 80 12h308q203 0 280 -216l8 -68v-332h140q229 0 308 -188q16 -56 16 -100v-152q0 -276 -264 -408q-76 -40 -224 -40h-372q-352 0 -468 308q-20 74 -20 132zM194 440q0 -199 208 -284q43 -16 128 -16h396q230 0 312 200q16 55 16 100v156 q0 101 -112 140l-56 4h-288l-8 8v468q0 104 -120 140h-336q-109 0 -140 -128v-788zM334 484v724l8 8h300l8 -8v-696q11 -68 68 -68h12q68 11 68 68v76l8 8h300l8 -8v-104q0 -153 -104 -192l-52 -8h-468q-111 0 -152 128z" />
<glyph unicode="M" horiz-adv-x="1912" d="M50 260v24q83 912 104 912q18 72 140 188q147 116 320 116h232q57 0 112 -16q45 16 120 16h232q245 0 416 -236q68 -119 68 -296q68 -620 68 -700q0 -150 -172 -248q-60 -24 -152 -24h-236q-71 0 -112 12q-45 -12 -116 -12h-236q-71 0 -112 12q-45 -12 -116 -12h-240 q-270 0 -320 264zM194 276q0 -88 112 -132l56 -4h260q61 0 108 24q8 -20 96 -24h260q49 0 104 20q46 -20 100 -20h260q114 0 156 84l12 52q-79 868 -92 868q-53 117 -176 180q-81 32 -144 32h-228q-55 0 -124 -20q-62 20 -112 20h-232q-191 0 -312 -188q-27 -48 -60 -440z M338 292q76 820 92 820q66 104 224 104h140q100 0 168 -40q43 40 156 40h140q207 0 244 -164l76 -764l-4 -4h-304q-12 0 -32 280l-48 468h-4q-70 -748 -76 -748h-304q-10 0 -28 244l-52 500h-4q-69 -744 -76 -744h-300z" />
<glyph unicode="N" horiz-adv-x="1580" d="M50 300v888q0 215 184 292q45 20 104 20h356q76 0 124 -24q53 24 116 24h308q200 0 276 -208q12 -29 12 -80v-928q0 -185 -188 -268q-44 -20 -136 -20h-364q-57 0 -112 12q-55 -12 -120 -12h-240q-243 0 -312 220zM194 296q0 -122 120 -152l48 -4h260q56 0 112 24 q36 -24 100 -24h384q114 0 152 80q16 29 16 64v932q-23 140 -140 140h-316q-45 0 -104 -40q-68 40 -128 40h-360q-99 0 -140 -108l-4 -56v-896zM338 292v916l8 8h324q120 -11 120 -96l136 -644h4v732l8 8h300l8 -8v-916l-8 -8h-420q-15 0 -40 160l-124 584h-4v-736l-8 -8 h-296z" />
<glyph unicode="O" d="M50 452v588q0 279 244 412q93 48 192 48h476q241 0 384 -232q52 -99 52 -192v-648q0 -218 -208 -364q-99 -68 -280 -68h-372q-335 0 -456 280q-32 79 -32 176zM194 452q0 -215 208 -296q43 -16 128 -16h396q247 0 320 224l8 60v640q0 169 -164 260q-60 32 -132 32h-468 q-195 0 -280 -204q-16 -44 -16 -104v-596zM338 424v652q0 89 124 136l76 4h376q158 0 192 -112l8 -76v-564q0 -139 -120 -176l-36 -4h-460q-129 0 -160 140zM650 516q11 -72 68 -72h20q64 11 64 92v420q0 100 -76 100h-4q-72 -11 -72 -72v-468z" />
<glyph unicode="P" horiz-adv-x="1452" d="M50 316v868q0 230 204 304q42 12 84 12h616q279 0 412 -272q36 -69 36 -260v-52q0 -246 -80 -340q-144 -192 -360 -192h-24v-60q0 -237 -196 -312q-53 -16 -132 -16h-240q-230 0 -308 204q-12 65 -12 116zM194 308q0 -168 168 -168h256q176 0 176 172v208l8 8h156 q206 0 288 220q12 45 12 156v76q0 195 -64 260q-96 116 -236 116h-620q-128 0 -144 -156v-892zM338 292v916l8 8h568q200 0 200 -176v-204q0 -136 -140 -164l-68 -4h-192q-51 0 -64 -72v-304l-8 -8h-296zM650 828h76q76 0 76 96v36q0 96 -76 96q-76 -12 -76 -76v-152z" />
<glyph unicode="Q" d="M50 424v656q0 204 204 352q111 68 232 68h476q234 0 380 -228q56 -96 56 -248v-548q0 -349 -324 -464q-76 -16 -164 -16h-372q-368 0 -476 328zM194 420q0 -136 144 -236q65 -44 188 -44h392q273 0 332 252l4 76v564q0 244 -228 316l-60 8h-476q-206 0 -288 -220l-8 -60 v-656zM334 448v600q0 114 104 156q21 12 96 12h376q154 0 192 -104l8 -52v-624q0 -104 -120 -148l-40 -4h-460q-136 0 -156 164zM646 532q0 -73 60 -88v4l-12 72h76l28 -4v464q-11 76 -76 76h-8q-60 0 -68 -92v-432z" />
<glyph unicode="R" d="M50 272v956q0 153 164 244q58 28 112 28h636q261 0 404 -272q32 -94 32 -180v-128q0 -94 -28 -172q28 -75 28 -164v-288q0 -214 -212 -288q-47 -12 -108 -12h-240q-71 0 -116 12q-41 -12 -112 -12h-236q-230 0 -304 184q-20 47 -20 92zM194 280q0 -97 112 -136l56 -4h260 q49 0 104 20q43 -20 100 -20h260q137 0 164 116l4 36v292q0 78 -40 168q40 81 40 156v140q0 211 -204 292q-37 16 -92 16h-624q-105 0 -140 -120v-956zM334 292v916l8 8h580q144 0 180 -108l8 -32v-188q0 -77 -96 -128l-28 -8v-4q124 -46 124 -136v-320l-8 -8h-296l-8 8v304 q-11 72 -68 72h-80v-376l-8 -8h-300zM650 828h64q73 0 84 68v88q-11 72 -72 72h-4q-72 -11 -72 -68v-160z" />
<glyph unicode="S" d="M50 436v152q0 74 20 108q-20 61 -20 124v244q0 249 248 392q96 44 188 44h476q251 0 392 -248q44 -96 44 -188v-160q0 -60 -20 -104q20 -50 20 -132v-236q0 -239 -236 -384q-94 -52 -252 -52h-372q-352 0 -468 308q-20 74 -20 132zM194 440q0 -199 208 -284 q43 -16 128 -16h396q230 0 312 200q16 55 16 100v232q0 60 -32 144q32 30 32 84v160q0 204 -216 284q-29 12 -80 12h-468q-215 0 -292 -240l-4 -64v-220q0 -75 32 -144q-32 -47 -32 -92v-156zM334 484v104l8 8h300l8 -8v-76q11 -68 68 -68h12q68 11 68 68v88q-11 68 -68 68 h-192q-164 0 -196 116q-8 34 -8 88v140q0 161 108 192q24 12 84 12h396q192 0 192 -192v-116l-8 -8h-300l-8 8v76q-10 72 -72 72h-4q-72 -10 -72 -72v-84q0 -63 76 -72h224q109 0 152 -104q12 -21 12 -96v-144q0 -153 -104 -192l-52 -8h-468q-111 0 -152 128z" />
<glyph unicode="T" d="M50 916v284q0 214 208 288q29 12 80 12h784q174 0 264 -196l12 -76v-340q0 -165 -188 -256q-44 -9 -44 -16v-348q0 -164 -192 -256q-56 -16 -132 -16h-240q-221 0 -300 184q-20 52 -20 116v320q0 7 -64 24q-168 91 -168 276zM194 912q0 -107 104 -148l36 -4h84l8 -8v-460 q0 -115 116 -148l52 -4h260q120 0 160 92l8 48v472l8 8h84q105 0 140 120v348q0 83 -108 124l-32 4h-780q-122 0 -140 -152v-292zM338 908v300l8 8h760l8 -8v-300l-8 -8h-224v-608l-8 -8h-296l-8 8v608h-224z" />
<glyph unicode="U" horiz-adv-x="1452" d="M50 476v708q0 230 204 304q42 12 84 12h312l76 -8l76 8h312q198 0 276 -212q12 -45 12 -136v-624q0 -249 -84 -344q-129 -188 -408 -188h-372q-341 0 -460 292q-28 74 -28 188zM194 468q0 -242 220 -316q45 -12 116 -12h392q240 0 320 204q16 57 16 168v656 q0 145 -88 176q-26 12 -56 12h-312q-27 0 -80 -20q-35 20 -72 20h-312q-101 0 -140 -112l-4 -56v-720zM338 444v764l8 8h296l8 -8v-692q13 -72 64 -72h24q55 0 64 84v680l8 8h296l8 -8v-760q0 -113 -108 -156l-48 -8h-464q-106 0 -152 116z" />
<glyph unicode="V" d="M50 1220v12q0 150 168 244q57 24 116 24h312l76 -8l76 8h312q203 0 280 -220l8 -64q-83 -920 -108 -920q-140 -300 -500 -300h-136q-356 0 -496 296q-29 0 -84 668q-24 182 -24 260zM194 1220q76 -876 96 -876q105 -204 356 -204h156q267 0 364 232q12 60 88 848 q0 85 -100 128q-16 8 -44 8h-312q-27 0 -80 -20q-32 20 -72 20h-312q-140 -21 -140 -136zM334 1212l4 4h300q12 0 28 -172l56 -568h4q68 740 76 740h300l8 -8q-72 -766 -88 -812q-73 -112 -188 -112h-224q-136 0 -196 140z" />
<glyph unicode="W" horiz-adv-x="1912" d="M50 1228q0 168 196 260l92 12h308l76 -8l76 8h312l76 -8l76 8h312q209 0 284 -232l4 -52q-83 -912 -104 -912q-139 -308 -504 -308h-136q-89 0 -168 16q-59 -16 -152 -16h-144q-362 0 -504 312q-24 50 -80 692q-20 157 -20 228zM194 1220q78 -876 96 -876 q107 -204 356 -204h156q98 0 152 24q61 -24 156 -24h156q285 0 368 252l84 828q0 85 -100 128q-16 8 -44 8h-312q-32 0 -76 -20q-38 20 -72 20h-316q-32 0 -76 -20q-35 20 -72 20h-316q-105 0 -140 -120v-16zM334 1212l4 4h304q10 0 28 -244l52 -504h4q70 748 76 748h300 q20 -8 20 -128l64 -616h4q69 744 76 744h300l8 -8q-76 -820 -92 -820q-75 -104 -184 -104h-228q-40 0 -120 36q-57 -36 -108 -36h-236q-120 0 -188 128z" />
<glyph unicode="X" d="M50 284v316q0 79 28 148q-28 73 -28 148v328q0 176 200 264q50 12 88 12h308l80 -8l64 8h320q194 0 276 -204q12 -42 12 -84v-312q0 -78 -28 -148q28 -79 28 -164v-300q0 -208 -216 -280q-28 -12 -108 -12h-236q-71 0 -116 12q-41 -12 -112 -12h-236q-229 0 -308 188 q-16 57 -16 100zM194 284q0 -101 112 -140l56 -4h260q49 0 104 20q46 -20 100 -20h260q114 0 152 80q16 29 16 64v304q0 76 -40 164v4q40 65 40 148v308q0 123 -140 144h-316q-32 0 -76 -20q-35 20 -72 20h-316q-104 0 -140 -120v-336q0 -67 40 -156q-40 -68 -40 -148v-312z M334 292v260q0 158 112 192l16 4v4q-71 0 -120 108l-8 76v272l8 8h300l8 -8v-316q0 -51 72 -64q76 9 76 72v308l8 8h300l8 -8v-252q0 -159 -92 -192q0 -6 -36 -12v-4q53 0 116 -92q12 -51 12 -108v-256l-8 -8h-300l-8 8v308q-12 68 -68 68h-12q-68 -11 -68 -68v-308l-8 -8 h-300z" />
<glyph unicode="Y" d="M50 912v292q0 206 204 284q42 12 84 12h320l68 -8l76 8h320q166 0 256 -180q20 -45 20 -104v-328q0 -164 -136 -304q-57 -53 -96 -68v-244q0 -173 -196 -260q-47 -16 -128 -16h-236q-223 0 -300 176q-24 53 -24 116v224q-232 145 -232 400zM194 912q0 -211 208 -292 q24 -5 24 -12v-324q0 -101 112 -140l56 -4h260q120 0 160 92l8 48v324q1 8 84 40q148 98 148 256v316q-21 140 -140 140h-316q-32 0 -76 -20q-35 20 -72 20h-316q-92 0 -132 -100q-8 -16 -8 -44v-300zM338 896v312l8 8h296l8 -8v-308q0 -63 76 -72h8q64 18 64 64v316l8 8 h300l8 -8v-272q0 -144 -108 -180q-108 -14 -108 -40q-11 0 -16 -40v-384l-8 -8h-296l-8 8v344q0 92 -52 108q-129 0 -172 108q-8 16 -8 44z" />
<glyph unicode="Z" d="M50 312v180q0 157 76 256q-76 81 -76 220v228q0 235 236 300l52 4h776q198 0 276 -212l8 -56v-268q0 -96 -56 -188v-8q56 -81 56 -156v-344q0 -165 -192 -256q-56 -16 -132 -16h-704q-216 0 -296 176q-24 52 -24 140zM194 296q0 -122 120 -152l48 -4h724q120 0 160 92 l8 36v344q0 79 -104 120l-44 8v4q148 100 148 216v260q0 115 -140 136h-776q-99 0 -140 -108l-4 -56v-240q0 -126 128 -152h96v-8q-182 -89 -208 -192q-16 -36 -16 -100v-204zM338 292v232q0 75 180 164q137 84 204 148q80 91 80 220h-68q-84 0 -84 -84v-24l-8 -8h-296l-8 8 v260l8 8h760l8 -8v-212q0 -98 -108 -140q-211 -127 -292 -208q-64 -89 -64 -204v-4h40q112 0 112 92v56l8 8h296l8 -8v-296l-8 -8h-760z" />
<glyph unicode="[" horiz-adv-x="1140" d="M50 280v940q0 234 228 380q95 56 248 56h248q238 0 308 -220l8 -84v-124q0 -182 -156 -272v-412q156 -92 156 -284v-104q0 -241 -224 -304q-18 -8 -52 -8h-332q-209 0 -352 188q-80 117 -80 248zM194 284q0 -204 220 -288l64 -8h328q122 0 140 152v136q0 130 -136 152 q-20 0 -20 8v624q0 5 72 20q84 46 84 144v132q0 104 -96 148l-60 8h-272q-244 0 -316 -228l-8 -68v-932zM338 288v928q0 112 128 148l36 4h292l8 -8v-140l-8 -8h-72q-76 0 -76 -88v-760q0 -69 84 -80h64l8 -8v-136l-8 -8h-308q-102 0 -144 116z" />
<glyph unicode="\" horiz-adv-x="1232" d="M50 1192v36q0 153 164 244q58 28 112 28h320q260 0 316 -364q220 -786 220 -848v-4q0 -185 -188 -268q-44 -20 -136 -20h-236q-229 0 -308 188q-264 977 -264 1008zM194 1208q0 -41 264 -992q43 -76 152 -76h260q114 0 152 80q16 29 16 64v4q-8 55 -260 988 q-53 80 -128 80h-316q-105 0 -140 -120v-28zM338 1208l4 4h296q14 0 64 -216l192 -708l-4 -4h-296q-14 0 -68 228z" />
<glyph unicode="]" horiz-adv-x="1140" d="M50 132v152q0 168 156 256v412q-111 77 -132 148q-24 45 -24 120v144q0 217 236 288l68 4h260q370 0 468 -360l8 -100v-892q0 -333 -332 -448q-55 -12 -100 -12h-324q-195 0 -272 208q-12 29 -12 80zM194 136q0 -102 96 -140q16 -8 44 -8h328q159 0 256 172q28 60 28 136 v912q0 218 -232 296l-92 8h-272q-156 -16 -156 -144v-156q0 -102 112 -140q44 -3 44 -12v-624q0 -8 -44 -8q-112 -39 -112 -148v-144zM338 140v136l8 8h48q100 0 100 100v736q0 92 -76 92h-72l-8 8v140l8 8h292q164 -20 164 -156v-920q0 -119 -124 -160h-332z" />
<glyph unicode="^" horiz-adv-x="1140" d="M50 808v192q0 293 364 612q82 44 156 44q156 0 292 -184q228 -220 228 -516v-120q0 -236 -220 -308l-68 -8q-127 0 -236 116q-94 -116 -228 -116q-180 0 -268 184q-20 45 -20 104zM194 796q31 -128 128 -128l12 -4q88 0 192 140l44 40q159 -176 196 -176l32 -4 q109 0 144 120l4 36v148q0 246 -248 468q-53 76 -128 76q-83 0 -176 -124q-200 -201 -200 -384v-208zM338 816v192q0 138 232 356q232 -214 232 -384v-164h-4l-228 240l-228 -240h-4z" />
<glyph unicode="_" d="M50 -366q0 210 208 292l64 8h796q187 0 268 -200q12 -35 12 -80v-176q0 -175 -200 -260q-43 -12 -72 -12h-792q-174 0 -260 176q-24 49 -24 124v128zM194 -362v-136q18 -152 140 -152h792q87 0 128 116v188q0 98 -116 136h-816q-128 -27 -128 -152zM338 -362l8 8h756 l8 -8v-136l-8 -8h-756l-8 8v136z" />
<glyph unicode="`" horiz-adv-x="1132" d="M50 1352v32q0 132 136 228q63 44 176 44h256q257 0 316 -252q148 -541 148 -580v-28q0 -172 -196 -260q-50 -16 -128 -16h-60q-264 0 -400 148q-107 79 -172 376q-76 263 -76 308zM194 1360q8 -57 120 -464q104 -232 364 -232h92q119 0 160 92l8 48v12q0 32 -164 620 q-48 76 -140 76h-288q-124 0 -152 -128v-24zM338 1364l4 4h296q13 0 64 -220l92 -336l-4 -4h-120q-165 0 -224 148z" />
<glyph unicode="a" d="M50 448v100l12 124q-12 50 -12 88v68q0 294 296 420q72 20 128 20h492q208 0 352 -188q80 -115 80 -248v-400q0 -239 -236 -384q-94 -52 -252 -52h-372q-336 0 -460 284q-28 86 -28 168zM194 448q0 -210 208 -292q43 -16 128 -16h396q237 0 316 212q12 42 12 84v392 q0 172 -164 264q-60 32 -132 32h-488q-173 0 -264 -200q-12 -51 -12 -96v-72q0 -39 24 -80q-24 -64 -24 -128v-100zM338 444v108q0 111 112 152l68 8h284v36q0 64 -76 80q-80 -19 -80 -72h-300l-8 8v72q23 144 140 144h484q104 0 148 -124v-420q0 -119 -144 -152h-444 q-126 0 -168 88q-16 28 -16 72zM646 520q12 -80 76 -80h4q76 12 76 76v116h-156v-112z" />
<glyph unicode="b" d="M50 296v912q0 199 204 280q42 12 84 12h312q187 0 268 -192l12 -40h36q247 0 392 -252q40 -95 40 -180v-412q0 -211 -208 -360q-100 -68 -280 -68h-540q-221 0 -300 184q-20 52 -20 116zM194 292q0 -115 116 -148l52 -4h564q250 0 320 228l8 68v396q0 200 -220 284l-64 8 h-172l-8 8v88q0 115 -140 136h-316q-117 0 -140 -144v-920zM338 292v912l8 8h292l8 -8v-224h316q104 0 148 -124v-432q-25 -140 -176 -140h-588zM646 532q0 -74 64 -92h16q76 12 76 76v224q0 88 -100 88h-48l-8 -8v-288z" />
<glyph unicode="c" d="M50 460v348q0 315 300 436q67 24 136 24h488q251 0 388 -256q36 -83 36 -164v-160l-4 -52l4 -56v-168q0 -230 -248 -376q-92 -40 -228 -40h-384q-339 0 -460 288q-28 82 -28 176zM194 452q0 -221 220 -300q45 -12 116 -12h400q243 0 316 212l8 64v176l-8 40l8 52v168 q0 160 -180 252q-45 20 -104 20h-480q-208 0 -288 -228l-8 -84v-360zM338 448v360q0 121 100 164l52 8h480q105 0 140 -120v-160l-8 -8h-292l-8 8v52q0 63 -80 76q-64 0 -76 -92v-196q0 -87 68 -100h12q76 12 76 76v52l8 8h292l8 -8v-144q0 -97 -112 -136l-56 -4h-424 q-128 0 -168 100q-12 26 -12 64z" />
<glyph unicode="d" d="M50 464v328q0 350 324 460q57 16 112 16h36q0 87 124 188q77 44 156 44h312q198 0 276 -212l8 -56v-964q0 -165 -192 -256q-56 -16 -132 -16h-536q-334 0 -456 280q-32 84 -32 188zM194 456q0 -226 220 -304q45 -12 116 -12h556q120 0 160 92l8 36v952q0 115 -140 136 h-308q-133 0 -148 -152v-72l-8 -8h-160q-194 0 -280 -204q-16 -48 -16 -120v-344zM338 460v356q0 113 104 156l48 8h312v224l8 8h292l8 -8v-912l-8 -8h-584q-143 0 -176 124zM650 504q13 -64 84 -64q68 21 68 68v320h-52q-100 0 -100 -72v-252z" />
<glyph unicode="e" horiz-adv-x="1452" d="M50 476v312q0 335 296 456q75 24 140 24h488q257 0 396 -268q32 -79 32 -252v-44q0 -87 -8 -128l8 -116q0 -268 -164 -380q-93 -84 -304 -84h-396q-341 0 -460 292q-28 74 -28 188zM194 476q0 -234 188 -312q50 -24 148 -24h424q214 0 284 164q20 52 20 160v8 q0 61 -12 104q12 39 12 104v96q0 225 -128 296q-65 52 -160 52h-480q-203 0 -284 -220q-12 -47 -12 -108v-320zM338 464v340q0 123 100 168l52 8h480q103 0 140 -116l4 -64v-160l-8 -8h-456v-120q12 -72 76 -72q76 13 76 72l4 4h300l8 -8v-68q0 -156 -136 -156h-460 q-180 0 -180 180zM650 712h152v48q0 50 -76 68q-76 -18 -76 -68v-48z" />
<glyph unicode="f" horiz-adv-x="1452" d="M50 336v656q0 255 120 364q130 144 328 144h456q303 0 428 -312q16 -66 20 -128q0 -242 -228 -388l-88 -44q0 -79 -92 -172q-43 -36 -56 -36v-108q0 -215 -180 -292q-47 -24 -140 -24h-240q-237 0 -312 196q-16 54 -16 144zM194 312q0 -172 172 -172h260q168 0 168 168 v212q0 7 64 16q88 53 88 120v96l8 8h4q207 0 288 220l12 80q0 186 -200 280q-52 16 -100 16h-464q-213 0 -292 -232l-8 -116v-696zM338 292v740q0 126 100 172l52 8h472q152 -26 152 -156q-28 -152 -152 -152h-152l-8 8v80q0 64 -104 68h-48v-232h144l8 -8v-140l-8 -8h-144 v-380l-8 -8h-296z" />
<glyph unicode="g" d="M50 76v196q0 38 12 64q-12 30 -12 88v424q0 217 224 364q102 56 208 56h628q189 0 272 -196q16 -48 16 -120v-820q0 -348 -320 -460q-58 -16 -104 -16h-496q-259 0 -400 276q-28 88 -28 144zM194 76q0 -154 180 -256q68 -20 100 -20h488q190 0 276 204q16 48 16 120v844 q0 117 -116 156h-652q-201 0 -284 -220l-8 -60v-424q0 -43 20 -92q-20 -32 -20 -68v-184zM338 72v172l8 8h292l8 -8v-80q0 -53 76 -68q76 13 76 72v116h-284q-126 0 -168 100l-8 36v416q0 100 124 144h640l8 -8v-864q0 -113 -104 -156q-16 -8 -44 -8h-480q-108 0 -144 128z M646 512q0 -59 76 -72h76v316q0 56 -76 72q-76 -15 -76 -76v-240z" />
<glyph unicode="h" d="M50 268v960q0 163 180 252q45 20 104 20h312q191 0 272 -196q10 -36 16 -36h28q251 0 392 -252q44 -89 44 -212v-504q0 -244 -252 -300l-68 -4h-240q-71 0 -116 12q-47 -12 -108 -12h-240q-234 0 -312 196zM194 268q0 -92 132 -128h296q69 0 100 24q37 -24 104 -24h260 q139 0 164 120l4 36v516q0 226 -224 304l-72 8h-160l-8 8v72q-18 152 -140 152h-316q-140 -21 -140 -136v-952zM338 292v912l8 8h292l8 -8v-224h312q111 0 148 -124l4 -40v-524l-8 -8h-292l-8 8v432q0 100 -72 100l-4 4q-80 -13 -80 -76v-460l-8 -8h-292z" />
<glyph unicode="i" horiz-adv-x="984" d="M50 280v404q0 89 44 184q-44 90 -44 196q0 213 188 356q117 80 248 80h12q258 0 396 -260q40 -96 40 -184q0 -76 -44 -192q44 -92 44 -200v-376q0 -200 -208 -280q-50 -12 -116 -12h-236q-230 0 -304 184q-20 41 -20 100zM194 280q0 -98 112 -136l56 -4h260 q137 0 164 116l4 36v372q0 109 -68 200v8q68 90 68 184q0 203 -212 288q-42 12 -84 12h-4q-197 0 -280 -204q-16 -37 -16 -96q0 -97 68 -188v-4q-68 -91 -68 -176v-408zM338 292v388q0 120 152 148q156 -26 156 -156v-380l-8 -8h-292zM338 1068q0 96 116 140l40 4 q108 0 148 -120l4 -32q0 -109 -124 -152h-40q-98 0 -140 116z" />
<glyph unicode="j" d="M50 92v160q0 209 232 284l68 4h164v140q0 90 44 188q-44 94 -44 196q0 201 172 344q122 92 264 92h12q255 0 392 -252q44 -96 44 -188q0 -87 -44 -196q44 -94 44 -188v-584q0 -241 -232 -384q-99 -52 -192 -52h-496q-232 0 -376 232q-52 103 -52 204zM194 96 q0 -205 220 -288l60 -8h500q157 0 256 176q24 66 24 120v576q0 102 -68 192v8q68 87 68 188q0 198 -212 284q-42 12 -84 12h-4q-210 0 -288 -228l-8 -76q0 -82 68 -188v-4q-68 -79 -68 -184v-272l-8 -8h-304q-152 -14 -152 -148v-152zM338 100v144l8 8h292l8 -8v-68 q12 -80 76 -80q80 12 80 80v500q0 127 156 152q102 0 148 -120l4 -40v-568q0 -112 -120 -156h-516q-86 0 -132 116zM802 1060q0 106 116 148l40 4q109 0 148 -120l4 -32q0 -106 -120 -152h-44q-95 0 -136 108q-8 16 -8 44z" />
<glyph unicode="k" d="M50 280v924q0 210 228 284l44 4h340q175 0 260 -200l4 -24h188q198 0 276 -216l8 -60v-212q0 -75 -28 -148q28 -69 28 -148v-208q0 -198 -212 -276l-56 -8h-348l-60 8l-56 -8h-344q-173 0 -260 200q-12 50 -12 88zM194 284q17 -148 136 -148h324q33 0 72 20 q32 -20 68 -20h324q115 0 136 140v204q0 70 -40 156q40 72 40 148v200q-21 140 -140 140h-316l-8 8v88q0 87 -116 128h-352q-86 0 -124 -112l-4 -36v-916zM338 288v908l8 8h292l8 -8v-484h84q59 0 72 76v184l8 8h292l8 -8v-188q0 -112 -128 -148h-8v-4q88 0 136 -124v-220 l-8 -8h-292l-8 8v180q0 88 -76 88h-80v-268l-8 -8h-292z" />
<glyph unicode="l" horiz-adv-x="1064" d="M50 444v752q0 215 216 288l56 8h340q176 0 260 -200q12 -43 12 -72v-588q80 -85 80 -228v-96q0 -243 -220 -308q-18 -8 -52 -8h-264q-246 0 -388 256q-40 90 -40 196zM194 436q0 -213 224 -292l56 -8h268q124 33 124 124l4 32v116q0 109 -80 156v648q0 98 -116 136h-352 q-79 0 -120 -100q-8 -16 -8 -44v-768zM338 440v756l8 8h292l8 -8v-908l-8 -8h-164q-74 0 -124 96q-12 26 -12 64z" />
<glyph unicode="m" horiz-adv-x="1912" d="M50 268v732q0 150 168 244q57 24 116 24h544l76 -8l76 8h396q255 0 396 -260q40 -86 40 -220v-472q0 -230 -204 -308q-65 -12 -116 -12h-248q-61 0 -108 12q-47 -12 -108 -12h-240q-71 0 -116 12q-47 -12 -108 -12h-240q-226 0 -304 180q-20 49 -20 92zM194 268 q0 -92 132 -128h296q69 0 100 24q37 -24 104 -24h260q64 0 100 24q36 -24 100 -24h264q168 0 168 168v488q0 252 -236 324l-60 4h-396l-72 -12q-43 12 -72 12h-548q-140 -21 -140 -136v-720zM338 292v680l8 8h536q44 0 76 -60q0 42 64 60h400q112 0 148 -128l4 -48v-512 l-8 -8h-296l-8 8v468q0 50 -76 68q-76 -18 -76 -68v-468l-8 -8h-296l-8 8v464q0 56 -76 72q-76 -16 -76 -76v-460l-8 -8h-292z" />
<glyph unicode="n" d="M50 268v732q0 150 168 244q57 24 116 24h628q234 0 380 -228q56 -95 56 -248v-480q0 -211 -176 -292q-59 -24 -144 -24h-240q-71 0 -116 12q-47 -12 -108 -12h-240q-226 0 -304 180q-20 49 -20 92zM194 268q0 -81 112 -124l56 -4h260q66 0 100 24q37 -24 104 -24h260 q120 0 156 92q12 26 12 64v504q0 245 -228 316l-68 8h-624q-140 -21 -140 -136v-720zM338 292v680l8 8h612q113 0 148 -128l4 -36v-524l-8 -8h-296l-8 8v464q0 56 -76 72q-76 -16 -76 -76v-460l-8 -8h-292z" />
<glyph unicode="o" d="M50 428v416q0 221 224 368q104 56 208 56h480q265 0 404 -276q32 -81 32 -196v-336q0 -332 -328 -448q-65 -16 -160 -16h-372q-340 0 -460 284q-28 79 -28 148zM194 424q0 -152 160 -248q61 -36 168 -36h396q225 0 308 176q28 59 28 136v360q0 212 -200 296 q-47 16 -96 16h-480q-170 0 -268 -192q-16 -58 -16 -88v-420zM338 432v412q0 88 124 136h496q108 0 148 -120l4 -52v-360q0 -115 -112 -156l-68 -8h-416q-120 0 -164 92q-12 31 -12 56zM646 516q12 -76 76 -76h4q64 0 76 84v200q0 100 -72 100l-4 4q-80 -13 -80 -76v-236z " />
<glyph unicode="p" d="M50 40v956q0 158 176 252q55 20 108 20h628q239 0 380 -228q56 -98 56 -224v-364q0 -297 -284 -424q-49 -24 -188 -36q0 -70 -108 -172q-75 -56 -224 -56h-204q-250 0 -324 188q-16 58 -16 88zM194 48q0 -96 112 -136l64 -4h244q140 0 172 108l4 36v80l8 8h120 q265 0 328 236l8 68v372q0 219 -216 296q-29 12 -80 12h-624q-105 0 -140 -120v-956zM338 60v912l8 8h608q139 0 156 -160v-380q0 -107 -120 -152l-64 -4h-280v-224l-8 -8h-292zM646 440h80q55 0 76 68v220q-6 100 -76 100q-43 0 -76 -48l-4 -40v-300z" />
<glyph unicode="q" d="M50 432v408q0 224 220 368q103 60 212 60h480q259 0 400 -264q36 -90 36 -184v-764q0 -212 -228 -284l-112 -8h-204q-246 0 -320 180q-13 52 -20 52q-317 0 -440 300q-24 67 -24 136zM194 436q0 -191 204 -280q55 -16 124 -16h128l8 -8v-84q0 -96 112 -136l64 -4h244 q124 0 164 84q12 37 12 68v764q0 209 -216 288q-29 12 -80 12h-468q-172 0 -264 -164q-32 -60 -32 -132v-392zM338 436v396q0 104 124 148h500q105 0 148 -128v-792l-8 -8h-292l-8 8v224h-280q-133 0 -176 100zM646 516q12 -76 76 -76h80v296q-11 92 -76 92q-80 -14 -80 -80 v-232z" />
<glyph unicode="r" d="M50 284v696q0 203 216 280l60 8h648q240 0 380 -240q44 -95 44 -188v-148q0 -173 -164 -260q-50 -28 -120 -28h-180v-120q0 -209 -228 -280q-36 -8 -96 -8h-236q-228 0 -308 188q-16 57 -16 100zM194 284q0 -101 112 -140l56 -4h260q119 0 160 92l8 48v260l8 8h316 q104 0 140 120v168q0 201 -216 280l-60 8h-644q-103 0 -140 -120v-720zM338 292v680l8 8h624q96 0 136 -108l4 -40v-132l-8 -8h-292l-8 8v48q-17 80 -76 80q-80 -16 -80 -80v-456l-8 -8h-292z" />
<glyph unicode="s" d="M50 404v112q0 59 20 104q-20 57 -20 136v72q0 264 260 400q83 40 176 40h512q251 0 376 -260q24 -77 24 -140v-120q0 -64 -20 -100q20 -58 20 -124v-92q0 -239 -236 -384q-94 -52 -252 -52h-392q-282 0 -388 168q-80 104 -80 240zM194 408q0 -187 188 -256 q38 -12 124 -12h420q237 0 316 212q12 42 12 84v84q0 60 -32 140q32 35 32 84v120q0 192 -208 256l-52 4h-504q-196 0 -280 -204q-16 -41 -16 -96v-68q0 -69 32 -148q-32 -40 -32 -96v-104zM338 404v104l8 8h292l28 -52q31 -24 56 -24h4q76 12 76 76v80h-328q-83 0 -128 108 q-8 16 -8 44v80q0 112 128 152h528q116 -14 116 -116v-108l-8 -8h-292q-7 0 -20 44q-25 30 -64 36q-72 0 -80 -92v-64h304q160 -17 160 -156v-80q0 -119 -144 -152h-496q-88 0 -124 72z" />
<glyph unicode="t" horiz-adv-x="1528" d="M50 836v140q0 108 76 204q0 223 188 304q57 16 100 16h312q209 0 280 -228q8 -34 8 -88v-8q76 -86 76 -196v-96l100 -28q172 -72 252 -240q36 -107 36 -176q0 -253 -252 -400q-95 -44 -232 -44h-384q-367 0 -472 344q-12 69 -12 160v132q-76 83 -76 204zM194 828 q0 -79 76 -132v-208q0 -254 196 -328q52 -20 140 -20h392q237 0 316 196q16 50 20 104q0 187 -196 280q-52 20 -140 20h-76v4q24 39 24 88v148q0 77 -76 132v88q-16 156 -144 156h-312q-101 0 -140 -112l-4 -64v-68q-76 -59 -76 -132v-152zM338 836v136l8 8h68v224l8 8h296 l8 -8v-224h68l8 -8v-136l-8 -8h-68v-388h76q76 13 76 72v76l8 8h124q141 0 176 -124l4 -32q-27 -152 -144 -152l-36 -4h-416q-180 0 -180 188v356h-68z" />
<glyph unicode="u" d="M50 416v584q0 160 180 248q45 20 104 20h324l64 -8l76 8h312q189 0 272 -196q16 -48 16 -120v-476q0 -349 -324 -464q-76 -16 -164 -16h-372q-364 0 -472 320q-16 55 -16 100zM194 420q0 -121 120 -220q73 -60 212 -60h392q272 0 332 252l4 76v500q0 117 -116 156h-352 q-17 0 -64 -20q-38 20 -72 20h-316q-100 0 -140 -112v-592zM338 420v552l8 8h292l8 -8v-460q0 -59 76 -72q64 0 76 72v460l8 8h296l8 -8v-508q0 -180 -180 -180h-416q-126 0 -168 100z" />
<glyph unicode="v" d="M50 976v24q0 150 168 244q57 24 116 24h324l64 -8l76 8h324q166 0 256 -184q20 -55 20 -104q-90 -708 -120 -708q-148 -276 -488 -276h-136q-370 0 -504 320q-24 45 -100 660zM194 984q81 -668 112 -668q110 -176 340 -176h156q263 0 360 228q12 28 92 616 q-26 140 -140 140h-316q-32 0 -76 -20q-35 20 -72 20h-316q-140 -21 -140 -136v-4zM338 976l4 4h296q14 0 64 -408l20 -124h4q0 35 76 532h300l4 -4h4l-88 -576q-71 -116 -208 -116h-176q-165 0 -220 136z" />
<glyph unicode="w" horiz-adv-x="1912" d="M50 428v568q0 163 180 252q45 20 104 20h324l64 -8l76 8h324l64 -8l76 8h324q173 0 260 -196q16 -48 16 -108v-500q0 -333 -324 -452q-73 -16 -164 -16h-288l-132 8l-132 -8h-284q-344 0 -460 288q-28 68 -28 144zM194 424q0 -108 96 -204q85 -80 232 -80h312 q88 0 120 16q40 -16 116 -16h312q225 0 308 176q28 61 28 140v504q0 129 -116 164h-352q-17 0 -64 -20q-38 20 -72 20h-316q-32 0 -76 -20q-35 20 -72 20h-316q-103 0 -140 -116v-584zM338 432v540l8 8h292l8 -8v-456q12 -76 76 -76h4q64 0 76 84v448l8 8h292l8 -8v-464 q0 -53 76 -68q59 0 76 64v468l8 8h296l8 -8v-512q0 -134 -116 -168q-17 -8 -64 -8h-348q-75 0 -88 64q-29 -56 -56 -56q0 -8 -40 -8h-348q-119 0 -164 92q-12 31 -12 56z" />
<glyph unicode="x" d="M50 268v228q0 70 28 136q-28 68 -28 144v220q0 163 180 252q45 20 104 20h324l64 -8l76 8h324q162 0 252 -176q24 -49 24 -124v-160q0 -93 -28 -180q28 -67 28 -168v-160q0 -244 -252 -300l-68 -4h-240q-71 0 -116 12q-47 -12 -108 -12h-240q-234 0 -312 196zM194 280 q0 -98 112 -136l56 -4h260q69 0 100 24q37 -24 104 -24h260q139 0 164 120l4 36v160q0 112 -44 176q44 74 44 168v172q-18 152 -140 152h-316q-32 0 -76 -20q-35 20 -72 20h-316q-140 -21 -140 -136v-216q0 -57 40 -140q-40 -75 -40 -136v-216zM338 292v204q0 86 116 132 l20 4v4q-94 0 -136 124v212l8 8h292l8 -8v-188q15 -72 64 -72h20q72 0 72 100v160l8 8h292l8 -8v-176q0 -119 -120 -160h-16v-4q80 0 128 -108q8 -18 8 -52v-180l-8 -8h-292l-8 8v164q0 100 -88 100q-53 0 -68 -76v-188l-8 -8h-292z" />
<glyph unicode="y" d="M50 88v168q0 51 12 80q-12 48 -12 88v560q0 186 192 268q37 16 92 16h324l64 -8l76 8h324q143 0 240 -148q36 -65 36 -144v-868q0 -320 -328 -440l-96 -12h-496q-233 0 -380 236q-48 103 -48 196zM194 92q0 -200 220 -284l60 -8h500q151 0 252 168q28 69 28 132v880 q0 122 -140 144h-316q-32 0 -76 -20q-35 20 -72 20h-316q-140 -21 -140 -140v-548q0 -53 20 -108q-20 -35 -20 -72v-164zM338 68v176l8 8h292l8 -8v-72q15 -76 76 -76q68 0 80 84v104h-288q-150 0 -176 140v548l8 8h292l8 -8v-456q12 -76 76 -76h80v532l8 8h292l8 -8v-868 q-20 -160 -148 -160h-488q-88 0 -136 124z" />
<glyph unicode="z" d="M50 432v8q0 94 40 160q-40 71 -40 148v236q0 198 216 276l68 8h628q251 0 392 -248q44 -98 44 -188q0 -80 -40 -168q40 -69 40 -148v-228q0 -200 -208 -280q-50 -12 -116 -12h-536q-345 0 -464 296q-24 75 -24 140zM194 436q0 -190 204 -280q55 -16 124 -16h564 q113 0 152 80q16 29 16 64v228q0 94 -88 140v4q88 75 88 176q0 193 -212 280q-42 12 -84 12h-624q-140 -21 -140 -140v-240q0 -78 76 -120v-8q-76 -89 -76 -172v-8zM338 436v4q0 105 436 364l24 24h-52q-70 0 -92 -44q-8 -36 -16 -36h-292l-8 8v216l8 8h616q105 0 148 -128 v-28q0 -57 -268 -236q-164 -99 -164 -136q15 -12 36 -12h88v68l8 8h292l8 -8v-216l-8 -8h-580q-133 0 -176 100z" />
<glyph unicode="{" horiz-adv-x="1216" d="M50 752q0 103 80 196v284q0 195 184 340q113 84 280 84h260q267 0 312 -264v-200q0 -100 -92 -192q-46 -40 -60 -40v-36q0 -93 -28 -180q28 -63 28 -168v-32q152 -102 152 -240v-192q0 -166 -196 -256l-76 -12h-332q-244 0 -388 244q-44 98 -44 176v284q-80 95 -80 204z M194 744q0 -68 80 -128v-348q0 -167 188 -260q45 -20 104 -20h320q96 0 136 112v204q0 79 -104 120q-48 4 -48 12v148q0 97 -44 164q44 74 44 168v144q0 7 72 20q80 50 80 124v172q0 99 -116 132l-36 4h-284q-224 0 -304 -220l-8 -60v-348q-80 -62 -80 -140zM366 752v4 q43 0 52 92v372q0 101 112 140q18 8 52 8h288l8 -8v-140l-8 -8h-72q-72 -14 -72 -72v-228q0 -117 -112 -156l-24 -4v-4q57 0 112 -72q24 -39 24 -88v-228q0 -76 92 -76h52l8 -8v-136l-8 -8h-304q-102 0 -148 120v456q-8 19 -52 44z" />
<glyph unicode="|" horiz-adv-x="832" d="M50 168v1160q0 239 196 312q52 16 120 16h112q234 0 300 -236l4 -60v-1228q0 -172 -164 -260q-50 -28 -120 -28h-172q-172 0 -260 196q-16 50 -16 128zM194 156q0 -119 92 -160l48 -8h164q103 0 136 112l4 36v1232q0 128 -156 144h-132q-121 0 -152 -120l-4 -56v-1180z M338 140v1220l8 8h140l8 -8v-1220l-8 -8h-140z" />
<glyph unicode="}" horiz-adv-x="1216" d="M50 132v152q0 169 156 256v68q0 57 24 144q-24 78 -24 132v68q-156 98 -156 268v140q0 222 236 292l68 4h260q353 0 464 -336q12 -71 12 -120v-244l52 -88q24 -57 24 -116v-16q0 -92 -76 -184v-248q0 -295 -268 -424q-79 -36 -164 -36h-324q-195 0 -272 208 q-12 29 -12 80zM194 136q0 -116 120 -148h348q158 0 256 172q28 60 28 136v320q76 60 76 128v8q0 74 -76 128v320q0 232 -236 304q-34 8 -88 8h-272q-156 -16 -156 -144v-156q0 -99 108 -140q48 -3 48 -12v-176q0 -56 40 -136q-40 -75 -40 -136v-176q0 -8 -44 -8 q-112 -42 -112 -140v-152zM338 140v136l8 8h48q100 0 100 100v220q0 98 116 140l20 4v4q-90 0 -132 112l-4 32v224q0 74 -64 92h-84l-8 8v140l8 8h292q164 -16 164 -164v-380q0 -49 48 -68v-4q-47 -32 -48 -40v-420q0 -119 -124 -160h-332z" />
<glyph unicode="~" horiz-adv-x="1596" d="M50 684q0 57 72 284q75 148 204 212q96 48 184 48h36l96 -12q66 16 108 16h32q58 0 256 -52q63 0 164 -48q180 -40 228 -80q116 -99 116 -232q0 -65 -76 -296q-142 -256 -408 -256q-76 4 -104 16q-73 -20 -136 -20q-81 0 -584 144q-188 83 -188 276zM194 676 q0 -132 200 -160q365 -108 440 -108q37 0 116 24q81 -20 120 -20q187 0 280 200l52 208q0 104 -120 144q-156 36 -216 68l-40 4l-4 -4h-4q-187 56 -232 56h-36q-43 0 -104 -24q-62 20 -112 20h-12q-193 0 -280 -208q-48 -174 -48 -200zM338 680q45 199 96 232q49 28 88 28 h12q29 0 136 -32q38 36 92 36h16q60 -8 476 -124v-4q-38 -175 -72 -212q-57 -48 -120 -48l-140 32q-37 -36 -100 -36q-31 0 -484 128z" />
<glyph unicode="&#xa1;" horiz-adv-x="682" />
<glyph unicode="&#xa2;" horiz-adv-x="1139" />
<glyph unicode="&#xa3;" horiz-adv-x="1139" />
<glyph unicode="&#xa4;" horiz-adv-x="1139" />
<glyph unicode="&#xa5;" horiz-adv-x="1139" />
<glyph unicode="&#xa6;" horiz-adv-x="532" />
<glyph unicode="&#xa7;" horiz-adv-x="1139" />
<glyph unicode="&#xa8;" horiz-adv-x="682" />
<glyph unicode="&#xa9;" horiz-adv-x="1509" />
<glyph unicode="&#xaa;" horiz-adv-x="758" />
<glyph unicode="&#xab;" horiz-adv-x="1139" />
<glyph unicode="&#xac;" horiz-adv-x="1196" />
<glyph unicode="&#xad;" d="M50 700v96q0 227 192 300q39 20 148 20h672q229 0 300 -152q36 -55 36 -120v-192q0 -157 -184 -252q-63 -16 -104 -16h-764q-203 0 -280 200q-16 37 -16 116zM194 684q16 -156 144 -156h776q140 21 140 136v180q0 92 -132 128h-756q-172 0 -172 -168v-120zM338 680v140 l8 8h756l8 -8v-140l-8 -8h-756z" />
<glyph unicode="&#xae;" horiz-adv-x="1509" />
<glyph unicode="&#xaf;" horiz-adv-x="1131" />
<glyph unicode="&#xb0;" horiz-adv-x="819" />
<glyph unicode="&#xb1;" horiz-adv-x="1124" />
<glyph unicode="&#xb2;" horiz-adv-x="682" />
<glyph unicode="&#xb3;" horiz-adv-x="682" />
<glyph unicode="&#xb4;" horiz-adv-x="682" />
<glyph unicode="&#xb5;" horiz-adv-x="1180" />
<glyph unicode="&#xb6;" horiz-adv-x="1100" />
<glyph unicode="&#xb7;" horiz-adv-x="569" />
<glyph unicode="&#xb8;" horiz-adv-x="682" />
<glyph unicode="&#xb9;" horiz-adv-x="682" />
<glyph unicode="&#xba;" horiz-adv-x="748" />
<glyph unicode="&#xbb;" horiz-adv-x="1139" />
<glyph unicode="&#xbc;" horiz-adv-x="1708" />
<glyph unicode="&#xbd;" horiz-adv-x="1708" />
<glyph unicode="&#xbe;" horiz-adv-x="1708" />
<glyph unicode="&#xbf;" horiz-adv-x="1251" />
<glyph unicode="&#xc0;" horiz-adv-x="1366" />
<glyph unicode="&#xc1;" horiz-adv-x="1366" />
<glyph unicode="&#xc2;" horiz-adv-x="1366" />
<glyph unicode="&#xc3;" horiz-adv-x="1366" />
<glyph unicode="&#xc4;" horiz-adv-x="1366" />
<glyph unicode="&#xc5;" horiz-adv-x="1366" />
<glyph unicode="&#xc6;" horiz-adv-x="2048" />
<glyph unicode="&#xc7;" horiz-adv-x="1479" />
<glyph unicode="&#xc8;" horiz-adv-x="1366" />
<glyph unicode="&#xc9;" horiz-adv-x="1366" />
<glyph unicode="&#xca;" horiz-adv-x="1366" />
<glyph unicode="&#xcb;" horiz-adv-x="1366" />
<glyph unicode="&#xcc;" horiz-adv-x="569" />
<glyph unicode="&#xcd;" horiz-adv-x="569" />
<glyph unicode="&#xce;" horiz-adv-x="569" />
<glyph unicode="&#xcf;" horiz-adv-x="569" />
<glyph unicode="&#xd0;" horiz-adv-x="1479" />
<glyph unicode="&#xd1;" horiz-adv-x="1479" />
<glyph unicode="&#xd2;" horiz-adv-x="1593" />
<glyph unicode="&#xd3;" horiz-adv-x="1593" />
<glyph unicode="&#xd4;" horiz-adv-x="1593" />
<glyph unicode="&#xd5;" horiz-adv-x="1593" />
<glyph unicode="&#xd6;" horiz-adv-x="1593" />
<glyph unicode="&#xd7;" horiz-adv-x="1196" />
<glyph unicode="&#xd8;" horiz-adv-x="1593" />
<glyph unicode="&#xd9;" horiz-adv-x="1479" />
<glyph unicode="&#xda;" horiz-adv-x="1479" />
<glyph unicode="&#xdb;" horiz-adv-x="1479" />
<glyph unicode="&#xdc;" horiz-adv-x="1479" />
<glyph unicode="&#xdd;" horiz-adv-x="1366" />
<glyph unicode="&#xde;" horiz-adv-x="1366" />
<glyph unicode="&#xdf;" horiz-adv-x="1251" />
<glyph unicode="&#xe0;" horiz-adv-x="1139" />
<glyph unicode="&#xe1;" horiz-adv-x="1139" />
<glyph unicode="&#xe2;" horiz-adv-x="1139" />
<glyph unicode="&#xe3;" horiz-adv-x="1139" />
<glyph unicode="&#xe4;" horiz-adv-x="1139" />
<glyph unicode="&#xe5;" horiz-adv-x="1139" />
<glyph unicode="&#xe6;" horiz-adv-x="1821" />
<glyph unicode="&#xe7;" horiz-adv-x="1024" />
<glyph unicode="&#xe8;" horiz-adv-x="1139" />
<glyph unicode="&#xe9;" horiz-adv-x="1139" />
<glyph unicode="&#xea;" horiz-adv-x="1139" />
<glyph unicode="&#xeb;" horiz-adv-x="1139" />
<glyph unicode="&#xec;" horiz-adv-x="569" />
<glyph unicode="&#xed;" horiz-adv-x="569" />
<glyph unicode="&#xee;" horiz-adv-x="569" />
<glyph unicode="&#xef;" horiz-adv-x="569" />
<glyph unicode="&#xf0;" horiz-adv-x="1139" />
<glyph unicode="&#xf1;" horiz-adv-x="1139" />
<glyph unicode="&#xf2;" horiz-adv-x="1139" />
<glyph unicode="&#xf3;" horiz-adv-x="1139" />
<glyph unicode="&#xf4;" horiz-adv-x="1139" />
<glyph unicode="&#xf5;" horiz-adv-x="1139" />
<glyph unicode="&#xf6;" horiz-adv-x="1139" />
<glyph unicode="&#xf7;" horiz-adv-x="1124" />
<glyph unicode="&#xf8;" horiz-adv-x="1251" />
<glyph unicode="&#xf9;" horiz-adv-x="1139" />
<glyph unicode="&#xfa;" horiz-adv-x="1139" />
<glyph unicode="&#xfb;" horiz-adv-x="1139" />
<glyph unicode="&#xfc;" horiz-adv-x="1139" />
<glyph unicode="&#xfd;" horiz-adv-x="1024" />
<glyph unicode="&#xfe;" horiz-adv-x="1139" />
<glyph unicode="&#xff;" horiz-adv-x="1024" />
<glyph unicode="&#x152;" horiz-adv-x="2048" />
<glyph unicode="&#x153;" horiz-adv-x="1933" />
<glyph unicode="&#x178;" horiz-adv-x="1366" />
<glyph unicode="&#x2c6;" horiz-adv-x="682" />
<glyph unicode="&#x2dc;" horiz-adv-x="682" />
<glyph unicode="&#x2000;" horiz-adv-x="828" />
<glyph unicode="&#x2001;" horiz-adv-x="1656" />
<glyph unicode="&#x2002;" horiz-adv-x="828" />
<glyph unicode="&#x2003;" horiz-adv-x="1656" />
<glyph unicode="&#x2004;" horiz-adv-x="552" />
<glyph unicode="&#x2005;" horiz-adv-x="414" />
<glyph unicode="&#x2006;" horiz-adv-x="276" />
<glyph unicode="&#x2007;" horiz-adv-x="276" />
<glyph unicode="&#x2008;" horiz-adv-x="207" />
<glyph unicode="&#x2009;" horiz-adv-x="331" />
<glyph unicode="&#x200a;" horiz-adv-x="92" />
<glyph unicode="&#x2010;" d="M50 700v96q0 227 192 300q39 20 148 20h672q229 0 300 -152q36 -55 36 -120v-192q0 -157 -184 -252q-63 -16 -104 -16h-764q-203 0 -280 200q-16 37 -16 116zM194 684q16 -156 144 -156h776q140 21 140 136v180q0 92 -132 128h-756q-172 0 -172 -168v-120zM338 680v140 l8 8h756l8 -8v-140l-8 -8h-756z" />
<glyph unicode="&#x2011;" d="M50 700v96q0 227 192 300q39 20 148 20h672q229 0 300 -152q36 -55 36 -120v-192q0 -157 -184 -252q-63 -16 -104 -16h-764q-203 0 -280 200q-16 37 -16 116zM194 684q16 -156 144 -156h776q140 21 140 136v180q0 92 -132 128h-756q-172 0 -172 -168v-120zM338 680v140 l8 8h756l8 -8v-140l-8 -8h-756z" />
<glyph unicode="&#x2012;" d="M50 700v96q0 227 192 300q39 20 148 20h672q229 0 300 -152q36 -55 36 -120v-192q0 -157 -184 -252q-63 -16 -104 -16h-764q-203 0 -280 200q-16 37 -16 116zM194 684q16 -156 144 -156h776q140 21 140 136v180q0 92 -132 128h-756q-172 0 -172 -168v-120zM338 680v140 l8 8h756l8 -8v-140l-8 -8h-756z" />
<glyph unicode="&#x2013;" horiz-adv-x="1139" />
<glyph unicode="&#x2014;" horiz-adv-x="2048" />
<glyph unicode="&#x2018;" horiz-adv-x="455" />
<glyph unicode="&#x2019;" horiz-adv-x="455" />
<glyph unicode="&#x201a;" horiz-adv-x="455" />
<glyph unicode="&#x201c;" horiz-adv-x="682" />
<glyph unicode="&#x201d;" horiz-adv-x="682" />
<glyph unicode="&#x201e;" horiz-adv-x="682" />
<glyph unicode="&#x2022;" horiz-adv-x="717" />
<glyph unicode="&#x2026;" horiz-adv-x="2048" />
<glyph unicode="&#x202f;" horiz-adv-x="331" />
<glyph unicode="&#x2039;" horiz-adv-x="682" />
<glyph unicode="&#x203a;" horiz-adv-x="682" />
<glyph unicode="&#x205f;" horiz-adv-x="414" />
<glyph unicode="&#x20ac;" horiz-adv-x="1139" />
<glyph unicode="&#x2122;" horiz-adv-x="2048" />
<glyph unicode="&#x25fc;" horiz-adv-x="1270" d="M0 0v1270h1270v-1270h-1270z" />
</font>
</defs>
</svg>
